<svg xmlns="http://www.w3.org/2000/svg" width="16" height="16" viewBox="0 0 16 16" fill="none">
    <g clip-path="url(#clip0_3815_26454)">
        <path d="M2.61572 14.9953V12.3047H5.30636" stroke="white" stroke-width="1.4" stroke-linecap="round" stroke-linejoin="round"/>
        <path d="M14.8746 6.71435C15.16 8.23755 14.9317 9.81243 14.2255 11.1919C13.5192 12.5713 12.375 13.6772 10.9723 14.3361C9.56964 14.995 7.9879 15.1696 6.4753 14.8324C4.9627 14.4952 3.60484 13.6654 2.61479 12.4732M1.11975 9.28565C0.83427 7.76245 1.06257 6.18757 1.76882 4.80813C2.47507 3.4287 3.61931 2.32277 5.02199 1.66388C6.42466 1.005 8.0064 0.830442 9.519 1.16761C11.0316 1.50477 12.3895 2.33458 13.3795 3.52681" stroke="white" stroke-width="1.4" stroke-linecap="round" stroke-linejoin="round"/>
        <path d="M13.3782 1.00439V3.69503H10.6876M4.83981 8.36242C4.459 8.29624 4.459 7.74943 4.83981 7.68325C5.51385 7.56535 6.13761 7.24968 6.63178 6.77637C7.12595 6.30306 7.46822 5.69349 7.61507 5.02516L7.63785 4.91992C7.72031 4.54345 8.25627 4.54128 8.34198 4.91667L8.37019 5.03927C8.52173 5.70501 8.8668 6.31106 9.36198 6.78114C9.85716 7.25122 10.4803 7.56434 11.153 7.68108C11.536 7.74726 11.536 8.29732 11.153 8.36459C10.4805 8.48126 9.8574 8.79421 9.36224 9.26409C8.86707 9.73396 8.52192 10.3398 8.37019 11.0053L8.34198 11.1268C8.25627 11.5022 7.72031 11.5001 7.63785 11.1236L7.61616 11.0194C7.46916 10.3508 7.12657 9.74102 6.63198 9.26768C6.13739 8.79434 5.51316 8.47884 4.83872 8.36134L4.83981 8.36242Z" stroke="white" stroke-width="1.4" stroke-linecap="round" stroke-linejoin="round"/>
    </g>
    <defs>
        <clipPath id="clip0_3815_26454">
            <rect width="16" height="16" fill="white"/>
        </clipPath>
    </defs>
</svg>