<svg width="20" height="20" viewBox="0 0 20 20" fill="none" xmlns="http://www.w3.org/2000/svg">
<path d="M5.8335 8.05575C5.8335 7.46631 6.06765 6.90101 6.48445 6.48421C6.90125 6.06741 7.46655 5.83325 8.056 5.83325H15.2777C15.5695 5.83325 15.8585 5.89074 16.1282 6.00243C16.3978 6.11412 16.6428 6.27783 16.8492 6.48421C17.0556 6.69059 17.2193 6.93559 17.331 7.20524C17.4427 7.47488 17.5002 7.76389 17.5002 8.05575V15.2774C17.5002 15.5693 17.4427 15.8583 17.331 16.1279C17.2193 16.3976 17.0556 16.6426 16.8492 16.849C16.6428 17.0553 16.3978 17.2191 16.1282 17.3307C15.8585 17.4424 15.5695 17.4999 15.2777 17.4999H8.056C7.76413 17.4999 7.47513 17.4424 7.20548 17.3307C6.93584 17.2191 6.69083 17.0553 6.48445 16.849C6.27807 16.6426 6.11437 16.3976 6.00267 16.1279C5.89098 15.8583 5.8335 15.5693 5.8335 15.2774V8.05575Z" stroke="white" stroke-opacity="0.7" stroke-width="1.5" stroke-linecap="round" stroke-linejoin="round"/>
<path d="M3.34333 13.9475C3.0875 13.8021 2.87471 13.5917 2.72658 13.3374C2.57846 13.0832 2.50028 12.7942 2.5 12.5V4.16667C2.5 3.25 3.25 2.5 4.16667 2.5H12.5C13.125 2.5 13.465 2.82083 13.75 3.33333" stroke="white" stroke-opacity="0.7" stroke-width="1.5" stroke-linecap="round" stroke-linejoin="round"/>
</svg>
