<svg width="17" height="20" viewBox="0 0 17 20" fill="none" xmlns="http://www.w3.org/2000/svg">
<g clip-path="url(#clip0_104_956)">
<path fill-rule="evenodd" clip-rule="evenodd" d="M10.121 7.1244C10.7328 6.81933 11.5113 6.37027 12.2907 5.755C12.455 6.09627 12.473 6.39407 12.3883 6.63453C12.3283 6.804 12.2153 6.9514 12.0666 7.06867C11.9056 7.1954 11.7045 7.28767 11.4823 7.33753C11.0605 7.43253 10.5681 7.37707 10.121 7.1244ZM10.2271 10.2501L11.0369 10.7179C9.38332 11.6447 8.93379 13.3657 8.39979 15.0419C7.86585 13.3657 7.41625 11.6447 5.76272 10.7179L6.57259 10.2501C6.65093 10.2205 6.71789 10.1669 6.76388 10.0969C6.80987 10.0269 6.83252 9.94413 6.82859 9.86047C6.75439 8.29067 7.17825 7.59647 7.74999 7.1606C7.95505 7.00447 8.17892 6.92607 8.39979 6.92607C8.62065 6.92607 8.84452 7.00447 9.04965 7.1606C9.62139 7.59647 10.0453 8.29067 9.97105 9.86047C9.96712 9.94413 9.98977 10.0269 10.0358 10.0969C10.0817 10.1669 10.1487 10.2205 10.2271 10.2501ZM8.39979 0C9.33592 0.0251333 10.2744 0.206867 11.0889 0.5604C11.6529 0.805533 12.1791 1.12933 12.6557 1.51653C12.8709 1.69133 13.0481 1.8602 13.2433 2.0546C13.7697 2.0728 14.5391 1.48793 14.8963 0.940667C14.2816 2.956 11.4764 5.33593 9.53432 6.2466C9.53352 6.24627 9.53299 6.2458 9.53239 6.2454C9.18385 5.97927 8.79185 5.8462 8.39979 5.8462C8.00772 5.8462 7.61579 5.97927 7.26725 6.2454C7.26665 6.24573 7.26612 6.24633 7.26532 6.2466C5.32319 5.33593 2.51805 2.956 1.90332 0.940667C2.26045 1.48793 3.02985 2.0728 3.55632 2.0546C3.75159 1.86027 3.92879 1.69133 4.14392 1.51653C4.62045 1.12933 5.14672 0.805533 5.71072 0.5604C6.52525 0.206867 7.46372 0.0251333 8.39979 0ZM6.67859 7.1244C6.06685 6.81933 5.28832 6.37027 4.50899 5.755C4.34465 6.09627 4.32665 6.39407 4.41125 6.63453C4.47132 6.804 4.58439 6.9514 4.73299 7.06867C4.89405 7.1954 5.09512 7.28767 5.31739 7.33753C5.73912 7.43253 6.23145 7.37707 6.67859 7.1244Z" fill="white"/>
<path fill-rule="evenodd" clip-rule="evenodd" d="M13.1445 5.00107C13.5735 4.56807 13.9516 4.0888 14.2556 3.66113L14.41 3.95173C14.9071 4.9462 15.1653 5.93667 15.1653 7.05133L15.1643 8.82013L15.1736 9.73707C15.2096 11.9881 15.6967 14.2657 16.8 16.3499L14.4915 14.4885L12.8581 17.1391L11.1421 15.5237L8.4 19.9736L5.65787 15.5237L3.94193 17.1391L2.30853 14.4885L0 16.35C1.10333 14.2657 1.5904 11.9882 1.62647 9.73713L1.6358 8.8202L1.63473 7.0514C1.63473 5.93667 1.89293 4.9462 2.39013 3.9518L2.54447 3.6612C2.84847 4.08887 3.22647 4.56807 3.6556 5.00113L3.5216 5.27947C3.26127 5.82007 3.17507 6.42453 3.37787 6.9994C3.5086 7.36967 3.7472 7.6872 4.0548 7.9296C4.35347 8.165 4.70693 8.32367 5.077 8.407C5.31807 8.46127 5.56367 8.4836 5.80767 8.476C5.75073 8.79873 5.72587 9.13347 5.72427 9.47453L3.54667 10.7323L5.22707 11.6742C5.36138 11.7495 5.48923 11.8358 5.60933 11.9321C6.99473 13.176 7.82767 16.8558 8.40007 18.6532C8.97253 16.8558 9.8054 13.176 11.1909 11.9321C11.311 11.8358 11.4388 11.7495 11.5731 11.6742L13.2535 10.7323L11.0759 9.47453C11.0743 9.13347 11.0494 8.79873 10.9925 8.476C11.2365 8.4836 11.4821 8.46127 11.7231 8.407C12.0932 8.32367 12.4467 8.165 12.7453 7.9296C13.0529 7.6872 13.2915 7.36967 13.4222 6.9994C13.6251 6.42453 13.5388 5.82013 13.2785 5.27947L13.1445 5.00113L13.1445 5.00107Z" fill="white"/>
</g>
<defs>
<clipPath id="clip0_104_956">
<rect width="16.8" height="20" fill="white"/>
</clipPath>
</defs>
</svg>
