<svg width="21" height="20" viewBox="0 0 21 20" fill="none" xmlns="http://www.w3.org/2000/svg">
<g clip-path="url(#clip0_104_959)">
<path d="M4.96478 9.51121C4.96478 9.04961 5.34398 8.67041 5.80478 8.67041H7.22158C7.68318 8.67041 8.07838 9.04961 8.07838 9.52801V14.8712C8.24318 14.8216 8.44078 14.772 8.67198 14.7224C8.98478 14.64 9.21598 14.36 9.21598 14.0296V7.40001C9.21598 6.93841 9.59518 6.54241 10.0728 6.54241H11.4896C11.9512 6.54241 12.3464 6.92161 12.3464 7.40001V13.552C12.3464 13.552 12.6928 13.4032 13.0384 13.2552C13.3024 13.14 13.4672 12.8928 13.4672 12.5952V5.25681C13.4672 4.79521 13.8464 4.39921 14.308 4.39921H15.7248C16.1864 4.39921 16.5656 4.77841 16.5656 5.25681V11.3096C17.7848 10.4192 19.0376 9.34721 20.0264 8.06081C20.3232 7.68161 20.4056 7.18641 20.2408 6.72481C18.428 1.51361 12.7272 -1.25759 7.51998 0.556808C2.31278 2.37121 -0.455225 8.07681 1.35678 13.2888C1.55438 13.8824 1.81838 14.4432 2.13118 14.9872C2.37838 15.416 2.83998 15.6632 3.33438 15.6136C3.59838 15.5968 3.92798 15.564 4.33918 15.5144C4.70158 15.4816 4.96558 15.168 4.96558 14.8048L4.96478 9.51121Z" fill="white"/>
<path d="M4.93115 18.0872C9.39675 21.336 15.6424 20.3464 18.888 15.8776C20.124 14.1624 20.7992 12.1008 20.7992 9.99041C20.7992 9.75921 20.7824 9.52881 20.7664 9.29761C17.1256 14.756 10.3856 17.312 4.93115 18.0872Z" fill="white"/>
</g>
<defs>
<clipPath id="clip0_104_959">
<rect width="20" height="20" fill="white" transform="translate(0.799805)"/>
</clipPath>
</defs>
</svg>
