<svg width="12" height="12" viewBox="0 0 12 12" fill="none" xmlns="http://www.w3.org/2000/svg">
<g clip-path="url(#clip0_104_1001)">
<path d="M10.5 10.5H2.3C2.01997 10.5 1.87996 10.5 1.773 10.4455C1.67892 10.3976 1.60243 10.3211 1.5545 10.227C1.5 10.12 1.5 9.98003 1.5 9.7V1.5M10.5 3.5L7.78284 6.21716C7.68384 6.31616 7.63434 6.36566 7.57725 6.38421C7.52704 6.40053 7.47296 6.40053 7.42275 6.38421C7.36566 6.36566 7.31616 6.31616 7.21716 6.21716L6.28284 5.28284C6.18384 5.18384 6.13434 5.13434 6.07725 5.11579C6.02704 5.09947 5.97296 5.09947 5.92275 5.11579C5.86566 5.13434 5.81616 5.18384 5.71716 5.28284L3.5 7.5M10.5 3.5H8.5M10.5 3.5V5.5" stroke="#BBBCBD" stroke-width="1.5" stroke-linecap="round" stroke-linejoin="round"/>
</g>
<defs>
<clipPath id="clip0_104_1001">
<rect width="12" height="12" fill="white"/>
</clipPath>
</defs>
</svg>
