<svg width="19" height="19" viewBox="0 0 19 19" fill="none" xmlns="http://www.w3.org/2000/svg">
<path d="M16.8388 2.36875C14.5138 0.0437499 10.7451 0.0437499 8.42007 2.36875C6.64038 4.14844 6.22476 6.77187 7.16851 8.94844L1.22319 14.8563C1.08489 14.9943 0.976475 15.1593 0.904701 15.341C0.832928 15.5227 0.799332 15.7172 0.806007 15.9125L0.874757 17.7484C1.21382 17.9391 1.22476 18.5406 1.22476 18.5406L2.77163 18.6594C3.16694 18.6719 3.54976 18.5203 3.82788 18.2422L4.31851 17.7516C4.62476 17.4453 4.79819 17.0125 4.72163 16.5875C4.67319 16.3234 4.72632 16.0766 4.89351 15.9094C5.09038 15.7125 5.39819 15.675 5.71538 15.7734C5.97944 15.8562 6.26694 15.8031 6.46382 15.6078L6.53101 15.5406C6.79819 15.2859 6.82788 14.9906 6.77632 14.7437C6.69663 14.3594 6.83413 14.0422 7.04351 13.7609C7.22632 13.5156 7.57476 13.4141 7.87632 13.4094C8.42163 13.4016 8.77632 13.2828 9.16226 12.8969L10.0966 11.9672C12.3044 13.0062 15.0169 12.6141 16.8419 10.7891C19.1638 8.4625 19.1638 4.69375 16.8388 2.36875ZM14.7138 6.77813C14.0826 7.40938 13.0591 7.40938 12.4294 6.77813C11.7982 6.14688 11.7982 5.12344 12.4294 4.49375C13.0607 3.8625 14.0841 3.8625 14.7138 4.49375C15.3451 5.12344 15.3451 6.14688 14.7138 6.77813Z" fill="#FFCA28"/>
</svg>
