<svg width="20" height="20" viewBox="0 0 20 20" fill="none" xmlns="http://www.w3.org/2000/svg">
<path d="M3.33333 4.99992V13.3333H7.5V9.99992C7.5 9.55789 7.67559 9.13397 7.98816 8.82141C8.30072 8.50885 8.72464 8.33325 9.16667 8.33325H13.3333C13.7754 8.33325 14.1993 8.50885 14.5118 8.82141C14.8244 9.13397 15 9.55789 15 9.99992V13.3333H16.6667V4.99992H3.33333ZM0 16.6666V14.9999H3.33333C2.89131 14.9999 2.46738 14.8243 2.15482 14.5118C1.84226 14.1992 1.66667 13.7753 1.66667 13.3333V4.99992C1.66667 4.55789 1.84226 4.13397 2.15482 3.82141C2.46738 3.50885 2.89131 3.33325 3.33333 3.33325H16.6667C17.1087 3.33325 17.5326 3.50885 17.8452 3.82141C18.1577 4.13397 18.3333 4.55789 18.3333 4.99992V13.3333C18.3333 13.7753 18.1577 14.1992 17.8452 14.5118C17.5326 14.8243 17.1087 14.9999 16.6667 14.9999H20V16.6666H15C15 17.1086 14.8244 17.5325 14.5118 17.8451C14.1993 18.1577 13.7754 18.3333 13.3333 18.3333H9.16667C8.72464 18.3333 8.30072 18.1577 7.98816 17.8451C7.67559 17.5325 7.5 17.1086 7.5 16.6666H0ZM9.58333 16.6666C9.47283 16.6666 9.36685 16.7105 9.2887 16.7886C9.21056 16.8668 9.16667 16.9727 9.16667 17.0833C9.16667 17.1938 9.21056 17.2997 9.2887 17.3779C9.36685 17.456 9.47283 17.4999 9.58333 17.4999C9.69384 17.4999 9.79982 17.456 9.87796 17.3779C9.9561 17.2997 10 17.1938 10 17.0833C10 16.9727 9.9561 16.8668 9.87796 16.7886C9.79982 16.7105 9.69384 16.6666 9.58333 16.6666ZM12.9167 16.6666C12.8062 16.6666 12.7002 16.7105 12.622 16.7886C12.5439 16.8668 12.5 16.9727 12.5 17.0833C12.5 17.1938 12.5439 17.2997 12.622 17.3779C12.7002 17.456 12.8062 17.4999 12.9167 17.4999C13.0272 17.4999 13.1332 17.456 13.2113 17.3779C13.2894 17.2997 13.3333 17.1938 13.3333 17.0833C13.3333 16.9727 13.2894 16.8668 13.2113 16.7886C13.1332 16.7105 13.0272 16.6666 12.9167 16.6666ZM10.8333 16.6666V17.4999H11.6667V16.6666H10.8333ZM9.16667 9.99992V15.8333H13.3333V9.99992H9.16667Z" fill="white"/>
</svg>
