<svg xmlns="http://www.w3.org/2000/svg" width="24" height="24" viewBox="0 0 24 24" fill="none">
	<path d="M8 7V5C8 4.46957 8.21071 3.96086 8.58579 3.58579C8.96086 3.21071 9.46957 3 10 3H14C14.5304 3 15.0391 3.21071 15.4142 3.58579C15.7893 3.96086 16 4.46957 16 5V7M2 14H22M9 16V12M15 16V12M4 21C3.46957 21 2.96086 20.7893 2.58579 20.4142C2.21071 20.0391 2 19.5304 2 19V12C2 11.4 2.3 10.7 2.7 10.3L5.3 7.7C5.7 7.3 6.4 7 7 7H17C17.6 7 18.3 7.3 18.7 7.7L21.3 10.3C21.7 10.7 22 11.5 22 12V19C22 19.5304 21.7893 20.0391 21.4142 20.4142C21.0391 20.7893 20.5304 21 20 21H4Z" stroke="white" stroke-width="2" stroke-linecap="round" stroke-linejoin="round" />
</svg>
