<svg width="371" height="327" viewBox="0 0 371 327" fill="none"
    xmlns="http://www.w3.org/2000/svg">
    <path opacity="0.5" fill-rule="evenodd" clip-rule="evenodd" d="M54.2975 291.252C126.652 338.383 243.989 338.383 316.386 291.252C388.782 244.121 388.74 167.746 316.386 120.657C244.031 73.5688 126.694 73.5264 54.2975 120.657C-18.0992 167.788 -18.0992 244.163 54.2975 291.252Z" fill="url(#paint0_radial_4524_31287)"/>
    <path fill-rule="evenodd" clip-rule="evenodd" d="M120.229 200.459C120.102 200.247 120.102 203.807 120.229 211.14C120.441 221.82 126.807 232.459 139.326 240.639C164.788 257.211 206.078 257.211 231.583 240.639C244.186 232.459 250.552 221.778 250.679 211.012C250.764 203.68 250.764 201.095 250.679 203.171L120.229 200.459Z" fill="#253796"/>
    <path fill-rule="evenodd" clip-rule="evenodd" d="M139.325 235.637C164.787 252.209 206.078 252.209 231.582 235.637C257.087 219.065 257.044 192.194 231.582 175.664C206.12 159.135 164.83 159.092 139.325 175.664C113.821 192.236 113.863 219.065 139.325 235.637Z" fill="url(#paint1_linear_4524_31287)"/>
    <path fill-rule="evenodd" clip-rule="evenodd" d="M148.535 228.008C168.947 241.275 202.047 241.275 222.459 228.008C242.871 214.742 242.871 193.254 222.459 179.988C202.047 166.721 168.947 166.721 148.535 179.988C128.123 193.254 128.123 214.742 148.535 228.008Z" fill="#253796"/>
    <path fill-rule="evenodd" clip-rule="evenodd" d="M148.535 224.575C168.947 237.841 202.047 237.841 222.459 224.575C242.871 211.309 242.871 189.821 222.459 176.554C202.047 163.288 168.947 163.288 148.535 176.554C128.123 189.821 128.123 211.309 148.535 224.575Z" fill="url(#paint2_linear_4524_31287)"/>
    <path fill-rule="evenodd" clip-rule="evenodd" d="M155.961 219.786C172.257 230.382 198.695 230.382 214.99 219.786C231.286 209.19 231.286 191.982 214.99 181.344C198.695 170.706 172.257 170.748 155.961 181.344C139.665 191.94 139.665 209.19 155.961 219.786Z" fill="#B0D6FF" fill-opacity="0.5"/>
    <path opacity="0.5" fill-rule="evenodd" clip-rule="evenodd" d="M155.961 219.771C172.256 230.367 198.694 230.367 214.99 219.771C223.689 214.091 227.763 206.547 227.169 199.13C226.83 194.807 217.791 169.207 200.095 122.288H172.893C153.839 169.207 144.163 194.764 143.781 199.088C143.145 206.505 147.219 214.091 155.961 219.771Z" fill="url(#paint3_linear_4524_31287)"/>
    <path opacity="0.5" fill-rule="evenodd" clip-rule="evenodd" d="M161.986 210.87C175.057 219.347 196.19 219.347 209.261 210.87C216.22 206.335 219.488 200.317 219.021 194.383C218.766 190.95 211.17 168.444 196.233 126.908H176.075C160.501 168.402 152.523 190.907 152.268 194.34C151.759 200.274 155.027 206.335 161.986 210.87Z" fill="url(#paint4_linear_4524_31287)"/>
    <path fill-rule="evenodd" clip-rule="evenodd" d="M166.728 85.2275C150.221 95.6963 144.534 113.37 149.584 138.25L152.342 139.564L157.265 112.396L166.728 104.894V85.2275Z" fill="url(#paint5_linear_4524_31287)"/>
    <path fill-rule="evenodd" clip-rule="evenodd" d="M169.444 86.5839C152.936 97.0527 147.25 114.727 152.3 139.606C154.591 130.578 157.138 124.348 159.981 120.957C162.824 117.566 165.964 114.939 169.444 113.074V86.5839Z" fill="#AA6CF4"/>
    <path fill-rule="evenodd" clip-rule="evenodd" d="M204.888 85.2275C221.396 95.6963 227.082 113.37 222.032 138.25L219.274 139.564L214.351 112.396L204.888 104.894V85.2275Z" fill="url(#paint6_linear_4524_31287)"/>
    <path fill-rule="evenodd" clip-rule="evenodd" d="M202.172 86.5839C218.68 97.0527 224.366 114.727 219.316 139.606C217.025 130.578 214.479 124.348 211.635 120.957C208.792 117.566 205.652 114.939 202.172 113.074V86.5839Z" fill="#AA6CF4"/>
    <path fill-rule="evenodd" clip-rule="evenodd" d="M186.344 89.8416C187.575 89.8416 188.636 90.774 188.806 92.0031C189.527 98.2335 189.909 105.312 189.909 113.237C189.909 122.096 189.442 130.869 188.551 139.473H184.18C183.289 129.894 182.822 121.121 182.822 113.28C182.822 106.159 183.204 99.0388 183.926 92.0031C184.053 90.774 185.114 89.8416 186.344 89.8416Z" fill="url(#paint7_linear_4524_31287)"/>
    <path fill-rule="evenodd" clip-rule="evenodd" d="M203.205 131.146C207.194 108.259 208.128 92.1105 206.006 82.7437C203.884 73.3769 197.264 62.569 186.231 50.4473C175.24 62.4419 168.662 73.2074 166.498 82.7437C164.334 92.2801 165.31 108.386 169.299 131.146C173.203 134.833 178.847 136.656 186.188 136.656C193.53 136.656 199.259 134.833 203.205 131.146Z" fill="#00EBFF"/>
    <path fill-rule="evenodd" clip-rule="evenodd" d="M207.407 123.22C212.372 94.6535 213.56 74.4788 210.929 62.7385C208.298 50.9982 200.065 37.5202 186.273 22.3892C172.566 37.393 164.376 50.8287 161.703 62.7385C159.029 74.6484 160.217 94.7807 165.225 123.263C170.105 130.468 177.107 134.07 186.273 134.07C195.44 134.07 202.484 130.425 207.407 123.22Z" fill="#4C46FE"/>
    <path fill-rule="evenodd" clip-rule="evenodd" d="M212.499 110.251C207.322 123.602 198.75 130.256 186.74 130.256C174.731 130.256 165.522 123.602 159.029 110.251V145.175H212.499V110.251Z" fill="#253796"/>
    <path fill-rule="evenodd" clip-rule="evenodd" d="M222.217 57.9492C202.017 71.0881 169.214 71.0881 149.014 57.9492C128.941 44.9373 128.941 23.9574 149.014 10.9456C169.214 -2.19342 202.017 -2.19342 222.217 10.9456C242.247 23.9574 242.247 44.9373 222.217 57.9492ZM222.514 58.4154C242.883 45.1916 242.883 23.7031 222.514 10.4793C202.144 -2.74441 169.086 -2.74441 148.717 10.4793C128.347 23.7031 128.347 45.1916 148.717 58.4154C169.086 71.6391 202.144 71.6391 222.514 58.4154Z" fill="url(#paint8_linear_4524_31287)"/>
    <path d="M222.514 58.4154C202.144 71.6392 169.086 71.6392 148.717 58.4154C128.347 45.1917 128.347 23.7031 148.717 10.4794C169.086 -2.74435 202.144 -2.74435 222.514 10.4794C242.883 23.7031 242.883 45.1917 222.514 58.4154ZM222.811 58.8817C243.52 45.4036 243.52 23.4912 222.811 10.0132C202.272 -3.33772 169.001 -3.33772 148.42 10.0132C127.711 23.4488 127.711 45.4036 148.42 58.8393C168.959 72.2326 202.229 72.2326 222.811 58.8817Z" fill="url(#paint9_linear_4524_31287)"/>
    <path d="M186.366 80.0676C193.701 80.0676 199.648 74.1092 199.648 66.7591C199.648 59.409 193.701 53.4506 186.366 53.4506C179.03 53.4506 173.083 59.409 173.083 66.7591C173.083 74.1092 179.03 80.0676 186.366 80.0676Z" fill="url(#paint10_linear_4524_31287)"/>
    <path d="M186.366 77.9062C192.507 77.9062 197.485 72.9155 197.485 66.7592C197.485 60.603 192.507 55.6123 186.366 55.6123C180.226 55.6123 175.248 60.603 175.248 66.7592C175.248 72.9155 180.226 77.9062 186.366 77.9062Z" fill="white" fill-opacity="0.24"/>
    <defs>
        <radialGradient id="paint0_radial_4524_31287" cx="0" cy="0" r="1" gradientUnits="userSpaceOnUse" gradientTransform="translate(185.2 205.976) rotate(-178.645) scale(179.245 113.427)">
            <stop stop-color="#4B46FE"/>
            <stop offset="1" stop-color="#B22FFA" stop-opacity="0"/>
        </radialGradient>
        <linearGradient id="paint1_linear_4524_31287" x1="162.832" y1="287.488" x2="287.384" y2="209.023" gradientUnits="userSpaceOnUse">
            <stop stop-color="#5A82ED"/>
            <stop offset="1" stop-color="#2759FF"/>
        </linearGradient>
        <linearGradient id="paint2_linear_4524_31287" x1="256.891" y1="248.489" x2="194.07" y2="148.719" gradientUnits="userSpaceOnUse">
            <stop stop-color="#5A82ED"/>
            <stop offset="1" stop-color="#2759FF"/>
        </linearGradient>
        <linearGradient id="paint3_linear_4524_31287" x1="188.238" y1="132.988" x2="185.049" y2="180.766" gradientUnits="userSpaceOnUse">
            <stop stop-color="#4C46FE"/>
            <stop offset="1" stop-color="#00EBFF" stop-opacity="0"/>
        </linearGradient>
        <linearGradient id="paint4_linear_4524_31287" x1="185.629" y1="142.856" x2="185.629" y2="198.862" gradientUnits="userSpaceOnUse">
            <stop stop-color="#4C46FE"/>
            <stop offset="1" stop-color="#00EBFF" stop-opacity="0"/>
        </linearGradient>
        <linearGradient id="paint5_linear_4524_31287" x1="161.24" y1="128.993" x2="123.36" y2="103.386" gradientUnits="userSpaceOnUse">
            <stop stop-color="#253796"/>
            <stop offset="1" stop-color="#4C46FE"/>
        </linearGradient>
        <linearGradient id="paint6_linear_4524_31287" x1="210.376" y1="128.993" x2="248.257" y2="103.386" gradientUnits="userSpaceOnUse">
            <stop stop-color="#253796"/>
            <stop offset="1" stop-color="#4C46FE"/>
        </linearGradient>
        <linearGradient id="paint7_linear_4524_31287" x1="213.833" y1="136.872" x2="151.261" y2="135.875" gradientUnits="userSpaceOnUse">
            <stop stop-color="#001C96"/>
            <stop offset="1" stop-color="#157EFF"/>
        </linearGradient>
        <linearGradient id="paint8_linear_4524_31287" x1="102.62" y1="93.7757" x2="29.4793" y2="-30.2033" gradientUnits="userSpaceOnUse">
            <stop stop-color="#772FB4"/>
            <stop offset="1" stop-color="#157EFF"/>
        </linearGradient>
        <linearGradient id="paint9_linear_4524_31287" x1="114.79" y1="75.701" x2="59.0139" y2="-0.484589" gradientUnits="userSpaceOnUse">
            <stop stop-color="#BE2DFA" stop-opacity="0"/>
            <stop offset="1" stop-color="#BE2DFA"/>
        </linearGradient>
        <linearGradient id="paint10_linear_4524_31287" x1="171.609" y1="48.9304" x2="221.521" y2="103.449" gradientUnits="userSpaceOnUse">
            <stop offset="0.119467" stop-color="#4B65F1"/>
            <stop offset="1" stop-color="#FA03FF"/>
        </linearGradient>
    </defs>
</svg>
