<svg width="85" height="84" viewBox="0 0 85 84" fill="none"
    xmlns="http://www.w3.org/2000/svg">
    <g filter="url(#filter0_b_4619_53000)">
        <rect x="0.492188" width="84" height="84" rx="16" fill="url(#paint0_linear_4619_53000)"/>
        <rect x="0.992188" y="0.5" width="83" height="83" rx="15.5" stroke="url(#paint1_linear_4619_53000)" stroke-opacity="0.2"/>
    </g>
    <path d="M47.5128 47.5128C52.3045 46.8713 56 42.7672 56 37.8C56 32.3876 51.6124 28 46.2 28C41.2328 28 37.1287 31.6955 36.4872 36.4872M47.6 46.2C47.6 51.6124 43.2124 56 37.8 56C32.3876 56 28 51.6124 28 46.2C28 40.7876 32.3876 36.4 37.8 36.4C43.2124 36.4 47.6 40.7876 47.6 46.2Z" stroke="#909090" stroke-width="2" stroke-linecap="round" stroke-linejoin="round"/>
    <defs>
        <filter id="filter0_b_4619_53000" x="-19.5078" y="-20" width="124" height="124" filterUnits="userSpaceOnUse" color-interpolation-filters="sRGB">
            <feFlood flood-opacity="0" result="BackgroundImageFix"/>
            <feGaussianBlur in="BackgroundImageFix" stdDeviation="10"/>
            <feComposite in2="SourceAlpha" operator="in" result="effect1_backgroundBlur_4619_53000"/>
            <feBlend mode="normal" in="SourceGraphic" in2="effect1_backgroundBlur_4619_53000" result="shape"/>
        </filter>
        <linearGradient id="paint0_linear_4619_53000" x1="36.4922" y1="-14.5" x2="86.8732" y2="42.2464" gradientUnits="userSpaceOnUse">
            <stop stop-color="#1C1E23"/>
            <stop offset="1" stop-color="#393B43"/>
        </linearGradient>
        <linearGradient id="paint1_linear_4619_53000" x1="-2.48785" y1="-7.19626" x2="58.9716" y2="106.715" gradientUnits="userSpaceOnUse">
            <stop stop-color="white"/>
            <stop offset="1" stop-color="white" stop-opacity="0"/>
        </linearGradient>
    </defs>
</svg>
