<svg width="18" height="18" viewBox="0 0 18 18" fill="none" xmlns="http://www.w3.org/2000/svg">
<rect width="18" height="18" fill="#E5E5E5"/>
<g id="Dashboard" clip-path="url(#clip0_0_1)">
<rect width="1920" height="1838" transform="translate(-31 -141)" fill="#060818"/>
<g id="Side Menu">
<rect id="Rectangle 1" x="-31" y="-141" width="300" height="1838" fill="#07142B"/>
</g>
<g id="Frame 1171275909">
<g id="Group 1171275831">
<g id="Group 1171275830">
<rect id="Rectangle 2" x="-11" y="-11" width="260" height="40" rx="8" fill="#142B69"/>
<g id="vuesax/outline/category-2">
<g id="vuesax/outline/category-2_2">
<g id="category-2">
<path id="Vector" d="M14.25 8.0625H12.75C10.935 8.0625 9.9375 7.065 9.9375 5.25V3.75C9.9375 1.935 10.935 0.9375 12.75 0.9375H14.25C16.065 0.9375 17.0625 1.935 17.0625 3.75V5.25C17.0625 7.065 16.065 8.0625 14.25 8.0625Z" fill="white"/>
<path id="Vector_2" d="M5.25 17.0625H3.75C1.935 17.0625 0.9375 16.065 0.9375 14.25V12.75C0.9375 10.935 1.935 9.9375 3.75 9.9375H5.25C7.065 9.9375 8.0625 10.935 8.0625 12.75V14.25C8.0625 16.065 7.065 17.0625 5.25 17.0625Z" fill="white"/>
<path id="Vector_3" d="M4.5 8.0625C2.535 8.0625 0.9375 6.465 0.9375 4.5C0.9375 2.535 2.535 0.9375 4.5 0.9375C6.465 0.9375 8.0625 2.535 8.0625 4.5C8.0625 6.465 6.465 8.0625 4.5 8.0625Z" fill="white"/>
<path id="Vector_4" d="M13.5 17.0625C11.535 17.0625 9.9375 15.465 9.9375 13.5C9.9375 11.535 11.535 9.9375 13.5 9.9375C15.465 9.9375 17.0625 11.535 17.0625 13.5C17.0625 15.465 15.465 17.0625 13.5 17.0625Z" fill="white"/>
</g>
</g>
</g>
</g>
</g>
</g>
</g>
<defs>
<clipPath id="clip0_0_1">
<rect width="1920" height="1838" fill="white" transform="translate(-31 -141)"/>
</clipPath>
</defs>
</svg>
